<svg width="144" height="47" viewBox="0 0 144 47" fill="none" xmlns="http://www.w3.org/2000/svg">
<g clip-path="url(#clip0_1_567)">
<path d="M32.8169 32.999L32.162 32.999C32.1147 33.003 32.0863 32.999 32.0863 32.999L32.162 32.999C32.2567 32.9909 32.4272 32.9503 32.5977 32.7798C32.7682 32.6093 32.8088 32.4388 32.8169 32.3441L32.8169 32.2683C32.8169 32.2683 32.821 32.2967 32.8169 32.3441L32.8169 32.999Z" fill="url(#paint0_linear_1_567)"/>
<path d="M32.8169 14.0013L32.8169 14.6562C32.821 14.7035 32.8169 14.732 32.8169 14.732L32.8169 14.6562C32.8088 14.5615 32.7682 14.391 32.5977 14.2205C32.4272 14.05 32.2567 14.0094 32.162 14.0013L32.0862 14.0013C32.0862 14.0013 32.1146 13.9972 32.162 14.0013L32.8169 14.0013Z" fill="url(#paint1_linear_1_567)"/>
<path d="M32.8169 14.0013L41.7312 22.9156C42.0541 23.2384 42.0541 23.7619 41.7312 24.0847L32.8169 32.999L32.8169 14.0013Z" fill="url(#paint2_linear_1_567)"/>
<path d="M13.8193 14.0013L22.7336 5.08704C23.0564 4.76421 23.5798 4.76421 23.9027 5.08704L32.8169 14.0013L13.8193 14.0013Z" fill="url(#paint3_linear_1_567)"/>
<path d="M32.8169 32.999L23.9027 41.9133C23.5798 42.2361 23.0564 42.2361 22.7336 41.9133L13.8193 32.999L32.8169 32.999Z" fill="url(#paint4_linear_1_567)"/>
<path d="M13.8193 14.0013L22.7336 22.9156C23.0564 23.2384 23.0564 23.7619 22.7336 24.0847L13.8193 32.999L13.8193 14.0013Z" fill="url(#paint5_linear_1_567)"/>
</g>
<path d="M58.5925 24.3198H48.0432V20.6099H58.5925V24.3198ZM49.4451 33H44.8289V12.3828H49.4451V33ZM61.8352 33H57.2473V12.3828H61.8352V33ZM73.2058 22.8047C73.2058 22.1439 73.0406 21.62 72.7102 21.2329C72.3892 20.8364 71.87 20.6382 71.1526 20.6382C70.7467 20.6382 70.3974 20.7043 70.1047 20.8364C69.8215 20.9686 69.5997 21.1621 69.4392 21.417C69.2882 21.6624 69.2126 21.974 69.2126 22.3516H64.7947C64.7947 21.417 65.0637 20.5815 65.6018 19.8452C66.1493 19.0994 66.914 18.5047 67.8958 18.061C68.887 17.6174 70.0528 17.3955 71.3933 17.3955C72.5922 17.3955 73.6589 17.5985 74.5935 18.0044C75.5375 18.4009 76.2833 19.005 76.8308 19.8169C77.3783 20.6193 77.6521 21.6247 77.6521 22.833V29.1909C77.6521 30.1255 77.704 30.8571 77.8079 31.3857C77.9211 31.9049 78.0769 32.3628 78.2751 32.7593V33H73.8289C73.6212 32.5563 73.4654 32.0041 73.3616 31.3433C73.2577 30.673 73.2058 29.9886 73.2058 29.29V22.8047ZM73.8005 26.1323H71.6482C70.657 26.1323 69.9443 26.3542 69.51 26.7979C69.0852 27.2415 68.8728 27.7702 68.8728 28.3838C68.8728 28.8369 69.0333 29.2145 69.3542 29.5166C69.6847 29.8092 70.1189 29.9556 70.657 29.9556C71.2234 29.9556 71.7143 29.847 72.1296 29.6299C72.545 29.4033 72.8612 29.139 73.0784 28.8369C73.3049 28.5254 73.4088 28.2375 73.3899 27.9731L74.4944 29.8706C74.3433 30.2482 74.1404 30.6353 73.8855 31.0317C73.6401 31.4282 73.3285 31.7964 72.9509 32.1362C72.5733 32.4761 72.1155 32.7546 71.5774 32.9717C71.0393 33.1794 70.4021 33.2832 69.6658 33.2832C68.7029 33.2832 67.825 33.0897 67.032 32.7026C66.239 32.3062 65.6065 31.7633 65.1345 31.0742C64.672 30.3757 64.4407 29.5732 64.4407 28.667C64.4407 27.0716 65.0307 25.8302 66.2107 24.9429C67.4001 24.0555 69.1843 23.6118 71.5632 23.6118H73.7722L73.8005 26.1323ZM87.0261 29.729C87.4981 29.729 87.9088 29.644 88.2581 29.4741C88.6073 29.2948 88.8764 29.0446 89.0652 28.7236C89.2634 28.4027 89.3673 28.0251 89.3767 27.5908H93.5256C93.5256 28.7142 93.2377 29.7054 92.6619 30.5645C92.0955 31.4141 91.3308 32.0796 90.3679 32.561C89.405 33.0425 88.3194 33.2832 87.1111 33.2832C85.5157 33.2832 84.1894 32.9434 83.1321 32.2637C82.0748 31.5745 81.2818 30.6447 80.7532 29.4741C80.234 28.2941 79.9744 26.9772 79.9744 25.5234V25.1694C79.9744 23.7062 80.234 22.3893 80.7532 21.2188C81.2818 20.0387 82.0701 19.1089 83.1179 18.4292C84.1752 17.7401 85.4968 17.3955 87.0828 17.3955C88.3572 17.3955 89.4758 17.641 90.4387 18.1318C91.4016 18.6133 92.1568 19.3071 92.7043 20.2134C93.2519 21.1196 93.5256 22.21 93.5256 23.4844H89.3767C89.3673 23.0218 89.2729 22.6017 89.0935 22.2241C88.9236 21.8371 88.664 21.5303 88.3147 21.3037C87.9654 21.0677 87.5264 20.9497 86.9978 20.9497C86.2709 20.9497 85.7187 21.1479 85.3411 21.5444C84.9729 21.9409 84.7227 22.4601 84.5906 23.1021C84.4584 23.7345 84.3923 24.4237 84.3923 25.1694V25.5234C84.3923 26.2786 84.4537 26.9772 84.5764 27.6191C84.7086 28.2516 84.9635 28.7614 85.3411 29.1484C85.7187 29.5355 86.2804 29.729 87.0261 29.729ZM100.181 33H95.7488V11.2358H100.181V33ZM103.254 25.4102L99.6287 29.021L97.9436 25.9199L100.832 22.1533L104.542 17.6787H109.852L103.254 25.4102ZM100.931 26.0332L104.061 23.4844L110.291 33H105.208L100.931 26.0332ZM116.097 33H111.665V17.6787H116.097V33ZM111.396 13.7422C111.396 13.0814 111.618 12.5433 112.061 12.1279C112.514 11.7031 113.114 11.4907 113.86 11.4907C114.605 11.4907 115.2 11.7031 115.644 12.1279C116.097 12.5433 116.323 13.0814 116.323 13.7422C116.323 14.3936 116.097 14.9316 115.644 15.3564C115.2 15.7812 114.605 15.9937 113.86 15.9937C113.114 15.9937 112.514 15.7812 112.061 15.3564C111.618 14.9316 111.396 14.3936 111.396 13.7422ZM120.359 33V16.4043C120.359 14.639 120.874 13.2891 121.903 12.3545C122.941 11.4199 124.343 10.9526 126.108 10.9526C126.505 10.9526 126.878 10.981 127.227 11.0376C127.586 11.0942 127.935 11.1603 128.275 11.2358L128.246 14.6484C128.076 14.6107 127.892 14.5824 127.694 14.5635C127.496 14.5446 127.274 14.5352 127.029 14.5352C126.321 14.5352 125.773 14.6956 125.386 15.0166C124.999 15.3376 124.805 15.8001 124.805 16.4043V33H120.359ZM127.793 20.8931H118.122V17.6787H127.793V20.8931ZM138.3 17.6787H143.03L136.927 35.2798C136.785 35.6668 136.601 36.0822 136.374 36.5259C136.148 36.979 135.846 37.4085 135.468 37.8145C135.1 38.2204 134.628 38.5508 134.052 38.8057C133.476 39.0605 132.773 39.188 131.942 39.188C131.668 39.188 131.432 39.1785 131.234 39.1597C131.045 39.1408 130.861 39.1077 130.682 39.0605C130.503 39.0228 130.29 38.9709 130.045 38.9048V35.5771C130.149 35.5771 130.252 35.5771 130.356 35.5771C130.46 35.5866 130.564 35.5913 130.668 35.5913C131.461 35.5913 132.037 35.4733 132.395 35.2373C132.754 35.0013 133.018 34.6379 133.188 34.147L134.321 31.2158L138.3 17.6787ZM136.148 28.4121L136.714 33.2974L133.726 33.4248L128.275 17.6787H133.018L136.148 28.4121Z" fill="#EAFF00"/>
<defs>
<linearGradient id="paint0_linear_1_567" x1="32.8169" y1="14.0013" x2="13.8193" y2="32.999" gradientUnits="userSpaceOnUse">
<stop stop-color="#EAFF00"/>
<stop offset="1" stop-color="#1ED760"/>
</linearGradient>
<linearGradient id="paint1_linear_1_567" x1="32.8169" y1="14.0013" x2="13.8193" y2="32.999" gradientUnits="userSpaceOnUse">
<stop stop-color="#EAFF00"/>
<stop offset="1" stop-color="#1ED760"/>
</linearGradient>
<linearGradient id="paint2_linear_1_567" x1="32.8169" y1="14.0013" x2="13.8193" y2="32.999" gradientUnits="userSpaceOnUse">
<stop stop-color="#EAFF00"/>
<stop offset="1" stop-color="#1ED760"/>
</linearGradient>
<linearGradient id="paint3_linear_1_567" x1="32.8169" y1="14.0013" x2="13.8193" y2="32.999" gradientUnits="userSpaceOnUse">
<stop stop-color="#EAFF00"/>
<stop offset="1" stop-color="#1ED760"/>
</linearGradient>
<linearGradient id="paint4_linear_1_567" x1="32.8169" y1="14.0013" x2="13.8193" y2="32.999" gradientUnits="userSpaceOnUse">
<stop stop-color="#EAFF00"/>
<stop offset="1" stop-color="#1ED760"/>
</linearGradient>
<linearGradient id="paint5_linear_1_567" x1="32.8169" y1="14.0013" x2="13.8193" y2="32.999" gradientUnits="userSpaceOnUse">
<stop stop-color="#EAFF00"/>
<stop offset="1" stop-color="#1ED760"/>
</linearGradient>
<clipPath id="clip0_1_567">
<rect width="32.2401" height="32.2401" fill="white" transform="translate(23.3181 46.2974) rotate(-135)"/>
</clipPath>
</defs>
</svg>
