<svg width="23" height="25" viewBox="0 0 23 25" fill="none" xmlns="http://www.w3.org/2000/svg">
<path fill-rule="evenodd" clip-rule="evenodd" d="M16.3206 23.314C17.9774 23.314 19.3205 21.9708 19.3205 20.314C19.3205 18.6571 17.9774 17.314 16.3206 17.314C14.6637 17.314 13.3206 18.6571 13.3206 20.314C13.3206 21.9708 14.6637 23.314 16.3206 23.314ZM16.3203 22.114C17.3145 22.114 18.1203 21.3081 18.1203 20.314C18.1203 19.3199 17.3145 18.514 16.3203 18.514C15.3262 18.514 14.5204 19.3199 14.5204 20.314C14.5204 21.3081 15.3262 22.114 16.3203 22.114Z" fill="#C4C4C4"/>
<path d="M18.3206 11.5H19.3206V20.875L18.3206 21.5V11.5Z" fill="#C4C4C4"/>
<path d="M18.8204 12.4999L19.3206 11.4999L21.9716 14.5874L21.3215 15.2357L18.8204 12.4999Z" fill="#C4C4C4"/>
<path d="M16.3206 15.7195C14.6539 13.9634 12.9872 13.378 14.0983 11.622C15.765 8.69512 16.3206 8.04844 16.3206 6.35366C16.3206 2.75957 13.645 1 10.765 1C7.88503 1 5.20945 2.75957 5.20945 6.35366C5.20945 8.21974 6.97892 10.4353 7.98722 11.622C11.3206 15.1341 1.87611 17.4756 1.32056 19.8171L1.32056 24.5" stroke="#C4C4C4" stroke-width="0.75"/>
</svg>
